<mxfile host="app.diagrams.net" modified="2023-12-24T13:02:17.655Z" agent="Mozilla/5.0 (Windows NT 10.0; Win64; x64) AppleWebKit/537.36 (KHTML, like Gecko) Chrome/120.0.0.0 Safari/537.36" etag="Yz68j03Z8fX7IpNMibfw" version="22.1.11" type="device">
  <diagram name="Page-1" id="kfBYUlLcRpwI2Dql98uj">
    <mxGraphModel dx="2610" dy="2036" grid="1" gridSize="10" guides="1" tooltips="1" connect="1" arrows="1" fold="1" page="1" pageScale="1" pageWidth="850" pageHeight="1100" math="0" shadow="0">
      <root>
        <mxCell id="0" />
        <mxCell id="1" parent="0" />
        <mxCell id="3FvASTp7XgKbw8yYfNH8-216" style="edgeStyle=orthogonalEdgeStyle;rounded=0;orthogonalLoop=1;jettySize=auto;html=1;exitX=0.25;exitY=1;exitDx=0;exitDy=0;entryX=0.25;entryY=0;entryDx=0;entryDy=0;" edge="1" parent="1" source="3FvASTp7XgKbw8yYfNH8-3" target="3FvASTp7XgKbw8yYfNH8-198">
          <mxGeometry relative="1" as="geometry" />
        </mxCell>
        <mxCell id="3FvASTp7XgKbw8yYfNH8-217" style="edgeStyle=orthogonalEdgeStyle;rounded=0;orthogonalLoop=1;jettySize=auto;html=1;exitX=0.5;exitY=1;exitDx=0;exitDy=0;entryX=0;entryY=0;entryDx=0;entryDy=0;" edge="1" parent="1" source="3FvASTp7XgKbw8yYfNH8-3" target="3FvASTp7XgKbw8yYfNH8-199">
          <mxGeometry relative="1" as="geometry" />
        </mxCell>
        <mxCell id="3FvASTp7XgKbw8yYfNH8-218" style="edgeStyle=orthogonalEdgeStyle;rounded=0;orthogonalLoop=1;jettySize=auto;html=1;exitX=0.75;exitY=1;exitDx=0;exitDy=0;entryX=0;entryY=0;entryDx=0;entryDy=0;" edge="1" parent="1" source="3FvASTp7XgKbw8yYfNH8-3" target="3FvASTp7XgKbw8yYfNH8-200">
          <mxGeometry relative="1" as="geometry" />
        </mxCell>
        <mxCell id="3FvASTp7XgKbw8yYfNH8-3" value="" style="rounded=0;whiteSpace=wrap;html=1;movable=1;resizable=1;rotatable=1;deletable=1;editable=1;locked=0;connectable=1;" vertex="1" parent="1">
          <mxGeometry x="320" y="100" width="130" height="180" as="geometry" />
        </mxCell>
        <mxCell id="3FvASTp7XgKbw8yYfNH8-4" value="" style="rounded=0;whiteSpace=wrap;html=1;" vertex="1" parent="1">
          <mxGeometry x="100" y="160" width="90" height="120" as="geometry" />
        </mxCell>
        <mxCell id="3FvASTp7XgKbw8yYfNH8-5" value="" style="rounded=0;whiteSpace=wrap;html=1;" vertex="1" parent="1">
          <mxGeometry x="1055" y="105" width="90" height="120" as="geometry" />
        </mxCell>
        <mxCell id="3FvASTp7XgKbw8yYfNH8-6" value="" style="rounded=0;whiteSpace=wrap;html=1;" vertex="1" parent="1">
          <mxGeometry x="1030" y="310" width="160" height="190" as="geometry" />
        </mxCell>
        <mxCell id="3FvASTp7XgKbw8yYfNH8-44" style="edgeStyle=orthogonalEdgeStyle;rounded=0;orthogonalLoop=1;jettySize=auto;html=1;exitX=1;exitY=0.5;exitDx=0;exitDy=0;entryX=0;entryY=0.75;entryDx=0;entryDy=0;" edge="1" parent="1" source="3FvASTp7XgKbw8yYfNH8-7" target="3FvASTp7XgKbw8yYfNH8-4">
          <mxGeometry relative="1" as="geometry" />
        </mxCell>
        <mxCell id="3FvASTp7XgKbw8yYfNH8-7" value="PC" style="rounded=0;whiteSpace=wrap;html=1;movable=1;resizable=1;rotatable=1;deletable=1;editable=1;locked=0;connectable=1;" vertex="1" parent="1">
          <mxGeometry x="20" y="220" width="30" height="60" as="geometry" />
        </mxCell>
        <mxCell id="3FvASTp7XgKbw8yYfNH8-10" value="Inst Mem" style="text;html=1;align=center;verticalAlign=middle;resizable=0;points=[];autosize=1;strokeColor=none;fillColor=none;" vertex="1" parent="1">
          <mxGeometry x="110" y="130" width="70" height="30" as="geometry" />
        </mxCell>
        <mxCell id="3FvASTp7XgKbw8yYfNH8-11" value="Reg File" style="text;html=1;align=center;verticalAlign=middle;resizable=0;points=[];autosize=1;strokeColor=none;fillColor=none;" vertex="1" parent="1">
          <mxGeometry x="330" y="70" width="70" height="30" as="geometry" />
        </mxCell>
        <mxCell id="3FvASTp7XgKbw8yYfNH8-12" value="CSR" style="text;html=1;align=center;verticalAlign=middle;resizable=0;points=[];autosize=1;strokeColor=none;fillColor=none;" vertex="1" parent="1">
          <mxGeometry x="1075" y="280" width="50" height="30" as="geometry" />
        </mxCell>
        <mxCell id="3FvASTp7XgKbw8yYfNH8-13" value="Data Mem" style="text;html=1;align=center;verticalAlign=middle;resizable=0;points=[];autosize=1;strokeColor=none;fillColor=none;" vertex="1" parent="1">
          <mxGeometry x="1060" y="75" width="80" height="30" as="geometry" />
        </mxCell>
        <mxCell id="3FvASTp7XgKbw8yYfNH8-14" value="" style="shape=stencil(pVTLbsMgEPyWHjgmIkZpe63cVuqph34Btdc1CgGEcR5/38XgKokDahzJsryzu7OzHgRhZddyA6SgLWGvpChWlOIb432IH2PIOwOVC1gjDlAHuHNWb2Avahf7hWrBCuez7I3QF6zxDysrrRQyCK26s8yYf1gs8ONDmR6b6Wl1QTF1rQWLcD4Xynccwvwo9xijJQuxQVFbcGDjlgElxfts4qc5xGHJz95dbnnbkqsLLev5Wr5Ael/na/mbfjz7T//TwkpEUieDld+82vxY3av6qhzD/ambJMb0Vu8g6V/u34wEUqhTguXzvRQJ3+5RkTU5QXE7QSV1B5mzhPjEjAFNOMjKRlvIWNsIKcPdkpmaLBhGTyYMaLjuBuAX);whiteSpace=wrap;html=1;" vertex="1" parent="1">
          <mxGeometry x="30" y="500" width="120" height="120" as="geometry" />
        </mxCell>
        <mxCell id="3FvASTp7XgKbw8yYfNH8-45" style="edgeStyle=orthogonalEdgeStyle;rounded=0;orthogonalLoop=1;jettySize=auto;html=1;exitX=0.5;exitY=0;exitDx=0;exitDy=0;entryX=0;entryY=0.5;entryDx=0;entryDy=0;" edge="1" parent="1" source="3FvASTp7XgKbw8yYfNH8-17" target="3FvASTp7XgKbw8yYfNH8-7">
          <mxGeometry relative="1" as="geometry" />
        </mxCell>
        <mxCell id="3FvASTp7XgKbw8yYfNH8-17" value="" style="shape=trapezoid;perimeter=trapezoidPerimeter;whiteSpace=wrap;html=1;fixedSize=1;rotation=90;size=13.269999999999982;" vertex="1" parent="1">
          <mxGeometry x="-110" y="265.85" width="70" height="26.1" as="geometry" />
        </mxCell>
        <mxCell id="3FvASTp7XgKbw8yYfNH8-49" value="" style="edgeStyle=orthogonalEdgeStyle;rounded=0;orthogonalLoop=1;jettySize=auto;html=1;" edge="1" parent="1" source="3FvASTp7XgKbw8yYfNH8-18" target="3FvASTp7XgKbw8yYfNH8-7">
          <mxGeometry relative="1" as="geometry" />
        </mxCell>
        <mxCell id="3FvASTp7XgKbw8yYfNH8-51" style="edgeStyle=orthogonalEdgeStyle;rounded=0;orthogonalLoop=1;jettySize=auto;html=1;exitX=0;exitY=0.5;exitDx=0;exitDy=0;entryX=0.25;entryY=1;entryDx=0;entryDy=0;" edge="1" parent="1" source="3FvASTp7XgKbw8yYfNH8-18" target="3FvASTp7XgKbw8yYfNH8-17">
          <mxGeometry relative="1" as="geometry" />
        </mxCell>
        <mxCell id="3FvASTp7XgKbw8yYfNH8-143" style="edgeStyle=orthogonalEdgeStyle;rounded=0;orthogonalLoop=1;jettySize=auto;html=1;exitX=1;exitY=0.25;exitDx=0;exitDy=0;entryX=0;entryY=0.5;entryDx=0;entryDy=0;" edge="1" parent="1" source="3FvASTp7XgKbw8yYfNH8-18" target="3FvASTp7XgKbw8yYfNH8-19">
          <mxGeometry relative="1" as="geometry" />
        </mxCell>
        <mxCell id="3FvASTp7XgKbw8yYfNH8-18" value="+4" style="rounded=0;whiteSpace=wrap;html=1;" vertex="1" parent="1">
          <mxGeometry x="-30" y="130" width="60" height="30" as="geometry" />
        </mxCell>
        <mxCell id="3FvASTp7XgKbw8yYfNH8-144" style="edgeStyle=orthogonalEdgeStyle;rounded=0;orthogonalLoop=1;jettySize=auto;html=1;exitX=1;exitY=0.5;exitDx=0;exitDy=0;entryX=0;entryY=0.5;entryDx=0;entryDy=0;" edge="1" parent="1" source="3FvASTp7XgKbw8yYfNH8-19" target="3FvASTp7XgKbw8yYfNH8-22">
          <mxGeometry relative="1" as="geometry" />
        </mxCell>
        <mxCell id="3FvASTp7XgKbw8yYfNH8-19" value="PC" style="rounded=0;whiteSpace=wrap;html=1;movable=1;resizable=1;rotatable=1;deletable=1;editable=1;locked=0;connectable=1;" vertex="1" parent="1">
          <mxGeometry x="220" y="11.700000000000003" width="30" height="50" as="geometry" />
        </mxCell>
        <mxCell id="3FvASTp7XgKbw8yYfNH8-92" style="edgeStyle=orthogonalEdgeStyle;rounded=0;orthogonalLoop=1;jettySize=auto;html=1;exitX=1;exitY=0.25;exitDx=0;exitDy=0;entryX=0;entryY=0.5;entryDx=0;entryDy=0;" edge="1" parent="1" source="3FvASTp7XgKbw8yYfNH8-20" target="3FvASTp7XgKbw8yYfNH8-57">
          <mxGeometry relative="1" as="geometry">
            <Array as="points">
              <mxPoint x="285" y="255" />
              <mxPoint x="285" y="133" />
            </Array>
          </mxGeometry>
        </mxCell>
        <mxCell id="3FvASTp7XgKbw8yYfNH8-20" value="IR" style="rounded=0;whiteSpace=wrap;html=1;movable=1;resizable=1;rotatable=1;deletable=1;editable=1;locked=0;connectable=1;" vertex="1" parent="1">
          <mxGeometry x="220" y="241.95" width="30" height="50" as="geometry" />
        </mxCell>
        <mxCell id="3FvASTp7XgKbw8yYfNH8-172" style="edgeStyle=orthogonalEdgeStyle;rounded=0;orthogonalLoop=1;jettySize=auto;html=1;exitX=1;exitY=0.5;exitDx=0;exitDy=0;entryX=1;entryY=0.75;entryDx=0;entryDy=0;" edge="1" parent="1" source="3FvASTp7XgKbw8yYfNH8-21" target="3FvASTp7XgKbw8yYfNH8-67">
          <mxGeometry relative="1" as="geometry" />
        </mxCell>
        <mxCell id="3FvASTp7XgKbw8yYfNH8-21" value="Immediate Generation" style="rounded=0;whiteSpace=wrap;html=1;" vertex="1" parent="1">
          <mxGeometry x="370" y="380" width="80" height="40" as="geometry" />
        </mxCell>
        <mxCell id="3FvASTp7XgKbw8yYfNH8-140" style="edgeStyle=orthogonalEdgeStyle;rounded=0;orthogonalLoop=1;jettySize=auto;html=1;exitX=1;exitY=0.5;exitDx=0;exitDy=0;entryX=0;entryY=0.5;entryDx=0;entryDy=0;" edge="1" parent="1" source="3FvASTp7XgKbw8yYfNH8-22" target="3FvASTp7XgKbw8yYfNH8-90">
          <mxGeometry relative="1" as="geometry" />
        </mxCell>
        <mxCell id="3FvASTp7XgKbw8yYfNH8-22" value="PC" style="rounded=0;whiteSpace=wrap;html=1;movable=1;resizable=1;rotatable=1;deletable=1;editable=1;locked=0;connectable=1;" vertex="1" parent="1">
          <mxGeometry x="940" y="3.780000000000001" width="30" height="50" as="geometry" />
        </mxCell>
        <mxCell id="3FvASTp7XgKbw8yYfNH8-145" style="edgeStyle=orthogonalEdgeStyle;rounded=0;orthogonalLoop=1;jettySize=auto;html=1;exitX=1;exitY=0.5;exitDx=0;exitDy=0;entryX=0;entryY=0.5;entryDx=0;entryDy=0;" edge="1" parent="1" source="3FvASTp7XgKbw8yYfNH8-23" target="3FvASTp7XgKbw8yYfNH8-79">
          <mxGeometry relative="1" as="geometry" />
        </mxCell>
        <mxCell id="3FvASTp7XgKbw8yYfNH8-23" value="ALU" style="rounded=0;whiteSpace=wrap;html=1;movable=1;resizable=1;rotatable=1;deletable=1;editable=1;locked=0;connectable=1;" vertex="1" parent="1">
          <mxGeometry x="940" y="145.85" width="30" height="50" as="geometry" />
        </mxCell>
        <mxCell id="3FvASTp7XgKbw8yYfNH8-100" style="edgeStyle=orthogonalEdgeStyle;rounded=0;orthogonalLoop=1;jettySize=auto;html=1;exitX=1;exitY=0.5;exitDx=0;exitDy=0;entryX=0;entryY=0.5;entryDx=0;entryDy=0;" edge="1" parent="1" source="3FvASTp7XgKbw8yYfNH8-24" target="3FvASTp7XgKbw8yYfNH8-74">
          <mxGeometry relative="1" as="geometry" />
        </mxCell>
        <mxCell id="3FvASTp7XgKbw8yYfNH8-24" value="IR" style="rounded=0;whiteSpace=wrap;html=1;movable=1;resizable=1;rotatable=1;deletable=1;editable=1;locked=0;connectable=1;" vertex="1" parent="1">
          <mxGeometry x="940" y="490" width="30" height="50" as="geometry" />
        </mxCell>
        <mxCell id="3FvASTp7XgKbw8yYfNH8-189" style="edgeStyle=orthogonalEdgeStyle;rounded=0;orthogonalLoop=1;jettySize=auto;html=1;exitX=1;exitY=0.5;exitDx=0;exitDy=0;entryX=0;entryY=0.5;entryDx=0;entryDy=0;" edge="1" parent="1" source="3FvASTp7XgKbw8yYfNH8-25" target="3FvASTp7XgKbw8yYfNH8-85">
          <mxGeometry relative="1" as="geometry" />
        </mxCell>
        <mxCell id="3FvASTp7XgKbw8yYfNH8-25" value="CSR&lt;br&gt;WR" style="rounded=0;whiteSpace=wrap;html=1;movable=1;resizable=1;rotatable=1;deletable=1;editable=1;locked=0;connectable=1;" vertex="1" parent="1">
          <mxGeometry x="940" y="390" width="30" height="50" as="geometry" />
        </mxCell>
        <mxCell id="3FvASTp7XgKbw8yYfNH8-180" style="edgeStyle=orthogonalEdgeStyle;rounded=0;orthogonalLoop=1;jettySize=auto;html=1;exitX=1;exitY=0.5;exitDx=0;exitDy=0;entryX=0;entryY=0.5;entryDx=0;entryDy=0;" edge="1" parent="1" source="3FvASTp7XgKbw8yYfNH8-26" target="3FvASTp7XgKbw8yYfNH8-80">
          <mxGeometry relative="1" as="geometry" />
        </mxCell>
        <mxCell id="3FvASTp7XgKbw8yYfNH8-26" value="WD" style="rounded=0;whiteSpace=wrap;html=1;movable=1;resizable=1;rotatable=1;deletable=1;editable=1;locked=0;connectable=1;" vertex="1" parent="1">
          <mxGeometry x="940" y="249.74999999999997" width="30" height="50" as="geometry" />
        </mxCell>
        <mxCell id="3FvASTp7XgKbw8yYfNH8-27" value="" style="endArrow=none;dashed=1;html=1;rounded=0;" edge="1" parent="1">
          <mxGeometry width="50" height="50" relative="1" as="geometry">
            <mxPoint x="240" y="780" as="sourcePoint" />
            <mxPoint x="230" y="-130" as="targetPoint" />
          </mxGeometry>
        </mxCell>
        <mxCell id="3FvASTp7XgKbw8yYfNH8-28" value="" style="endArrow=none;dashed=1;html=1;rounded=0;" edge="1" parent="1">
          <mxGeometry width="50" height="50" relative="1" as="geometry">
            <mxPoint x="960" y="750" as="sourcePoint" />
            <mxPoint x="950" y="-150" as="targetPoint" />
          </mxGeometry>
        </mxCell>
        <mxCell id="3FvASTp7XgKbw8yYfNH8-33" value="&lt;font style=&quot;font-size: 24px;&quot;&gt;Fetch&lt;/font&gt;" style="rounded=0;whiteSpace=wrap;html=1;" vertex="1" parent="1">
          <mxGeometry x="-60" y="-90" width="100" height="40" as="geometry" />
        </mxCell>
        <mxCell id="3FvASTp7XgKbw8yYfNH8-34" value="&lt;font style=&quot;font-size: 24px;&quot;&gt;Decode&lt;/font&gt;" style="rounded=0;whiteSpace=wrap;html=1;" vertex="1" parent="1">
          <mxGeometry x="315" y="-90" width="100" height="40" as="geometry" />
        </mxCell>
        <mxCell id="3FvASTp7XgKbw8yYfNH8-35" value="&lt;font style=&quot;font-size: 24px;&quot;&gt;Execute&lt;/font&gt;" style="rounded=0;whiteSpace=wrap;html=1;" vertex="1" parent="1">
          <mxGeometry x="660" y="-90" width="100" height="40" as="geometry" />
        </mxCell>
        <mxCell id="3FvASTp7XgKbw8yYfNH8-36" value="&lt;font style=&quot;font-size: 24px;&quot;&gt;Memory&lt;/font&gt;" style="rounded=0;whiteSpace=wrap;html=1;" vertex="1" parent="1">
          <mxGeometry x="1030" y="-90" width="100" height="40" as="geometry" />
        </mxCell>
        <mxCell id="3FvASTp7XgKbw8yYfNH8-37" value="&lt;font style=&quot;font-size: 24px;&quot;&gt;Writeback&lt;/font&gt;" style="rounded=0;whiteSpace=wrap;html=1;" vertex="1" parent="1">
          <mxGeometry x="1320" y="-90" width="120" height="40" as="geometry" />
        </mxCell>
        <mxCell id="3FvASTp7XgKbw8yYfNH8-48" value="" style="endArrow=none;html=1;rounded=0;" edge="1" parent="1">
          <mxGeometry width="50" height="50" relative="1" as="geometry">
            <mxPoint x="69.29" y="250" as="sourcePoint" />
            <mxPoint x="69" y="150" as="targetPoint" />
          </mxGeometry>
        </mxCell>
        <mxCell id="3FvASTp7XgKbw8yYfNH8-50" value="" style="endArrow=none;html=1;rounded=0;" edge="1" parent="1">
          <mxGeometry width="50" height="50" relative="1" as="geometry">
            <mxPoint x="30" y="150" as="sourcePoint" />
            <mxPoint x="70" y="150" as="targetPoint" />
          </mxGeometry>
        </mxCell>
        <mxCell id="3FvASTp7XgKbw8yYfNH8-53" value="Addr" style="rounded=0;whiteSpace=wrap;html=1;" vertex="1" parent="1">
          <mxGeometry x="100" y="235" width="40" height="25" as="geometry" />
        </mxCell>
        <mxCell id="3FvASTp7XgKbw8yYfNH8-56" style="edgeStyle=orthogonalEdgeStyle;rounded=0;orthogonalLoop=1;jettySize=auto;html=1;exitX=1;exitY=0.5;exitDx=0;exitDy=0;entryX=0;entryY=0.25;entryDx=0;entryDy=0;" edge="1" parent="1" source="3FvASTp7XgKbw8yYfNH8-54" target="3FvASTp7XgKbw8yYfNH8-20">
          <mxGeometry relative="1" as="geometry" />
        </mxCell>
        <mxCell id="3FvASTp7XgKbw8yYfNH8-54" value="Inst" style="rounded=0;whiteSpace=wrap;html=1;" vertex="1" parent="1">
          <mxGeometry x="150" y="241.95" width="40" height="25" as="geometry" />
        </mxCell>
        <mxCell id="3FvASTp7XgKbw8yYfNH8-57" value="rs1" style="rounded=0;whiteSpace=wrap;html=1;" vertex="1" parent="1">
          <mxGeometry x="320" y="120" width="40" height="25" as="geometry" />
        </mxCell>
        <mxCell id="3FvASTp7XgKbw8yYfNH8-94" style="edgeStyle=orthogonalEdgeStyle;rounded=0;orthogonalLoop=1;jettySize=auto;html=1;exitX=0;exitY=0.5;exitDx=0;exitDy=0;" edge="1" parent="1" source="3FvASTp7XgKbw8yYfNH8-59">
          <mxGeometry relative="1" as="geometry">
            <mxPoint x="280" y="172.5" as="targetPoint" />
          </mxGeometry>
        </mxCell>
        <mxCell id="3FvASTp7XgKbw8yYfNH8-59" value="rs1" style="rounded=0;whiteSpace=wrap;html=1;" vertex="1" parent="1">
          <mxGeometry x="320" y="160" width="40" height="25" as="geometry" />
        </mxCell>
        <mxCell id="3FvASTp7XgKbw8yYfNH8-60" value="rd" style="rounded=0;whiteSpace=wrap;html=1;" vertex="1" parent="1">
          <mxGeometry x="320" y="200" width="40" height="25" as="geometry" />
        </mxCell>
        <mxCell id="3FvASTp7XgKbw8yYfNH8-61" value="wdata" style="rounded=0;whiteSpace=wrap;html=1;" vertex="1" parent="1">
          <mxGeometry x="320" y="240.85" width="40" height="25" as="geometry" />
        </mxCell>
        <mxCell id="3FvASTp7XgKbw8yYfNH8-123" style="edgeStyle=orthogonalEdgeStyle;rounded=0;orthogonalLoop=1;jettySize=auto;html=1;exitX=1;exitY=0.25;exitDx=0;exitDy=0;entryX=0.75;entryY=1;entryDx=0;entryDy=0;" edge="1" parent="1" source="3FvASTp7XgKbw8yYfNH8-62" target="3FvASTp7XgKbw8yYfNH8-64">
          <mxGeometry relative="1" as="geometry" />
        </mxCell>
        <mxCell id="3FvASTp7XgKbw8yYfNH8-62" value="rdata1" style="rounded=0;whiteSpace=wrap;html=1;" vertex="1" parent="1">
          <mxGeometry x="410" y="160" width="40" height="25" as="geometry" />
        </mxCell>
        <mxCell id="3FvASTp7XgKbw8yYfNH8-124" style="edgeStyle=orthogonalEdgeStyle;rounded=0;orthogonalLoop=1;jettySize=auto;html=1;exitX=1;exitY=0.75;exitDx=0;exitDy=0;entryX=0.25;entryY=1;entryDx=0;entryDy=0;" edge="1" parent="1" source="3FvASTp7XgKbw8yYfNH8-63" target="3FvASTp7XgKbw8yYfNH8-65">
          <mxGeometry relative="1" as="geometry" />
        </mxCell>
        <mxCell id="3FvASTp7XgKbw8yYfNH8-63" value="rdata2" style="rounded=0;whiteSpace=wrap;html=1;" vertex="1" parent="1">
          <mxGeometry x="410" y="215.85" width="40" height="25" as="geometry" />
        </mxCell>
        <mxCell id="3FvASTp7XgKbw8yYfNH8-159" style="edgeStyle=orthogonalEdgeStyle;rounded=0;orthogonalLoop=1;jettySize=auto;html=1;exitX=0.5;exitY=0;exitDx=0;exitDy=0;entryX=0.5;entryY=1;entryDx=0;entryDy=0;" edge="1" parent="1" source="3FvASTp7XgKbw8yYfNH8-64" target="3FvASTp7XgKbw8yYfNH8-66">
          <mxGeometry relative="1" as="geometry" />
        </mxCell>
        <mxCell id="3FvASTp7XgKbw8yYfNH8-64" value="" style="shape=trapezoid;perimeter=trapezoidPerimeter;whiteSpace=wrap;html=1;fixedSize=1;rotation=90;size=13.269999999999982;" vertex="1" parent="1">
          <mxGeometry x="540" y="140.98000000000005" width="70" height="26.1" as="geometry" />
        </mxCell>
        <mxCell id="3FvASTp7XgKbw8yYfNH8-160" style="edgeStyle=orthogonalEdgeStyle;rounded=0;orthogonalLoop=1;jettySize=auto;html=1;exitX=0.5;exitY=0;exitDx=0;exitDy=0;entryX=0.5;entryY=1;entryDx=0;entryDy=0;" edge="1" parent="1" source="3FvASTp7XgKbw8yYfNH8-65" target="3FvASTp7XgKbw8yYfNH8-67">
          <mxGeometry relative="1" as="geometry" />
        </mxCell>
        <mxCell id="3FvASTp7XgKbw8yYfNH8-65" value="" style="shape=trapezoid;perimeter=trapezoidPerimeter;whiteSpace=wrap;html=1;fixedSize=1;rotation=90;size=13.269999999999982;" vertex="1" parent="1">
          <mxGeometry x="540" y="257.93" width="70" height="26.1" as="geometry" />
        </mxCell>
        <mxCell id="3FvASTp7XgKbw8yYfNH8-163" style="edgeStyle=orthogonalEdgeStyle;rounded=0;orthogonalLoop=1;jettySize=auto;html=1;exitX=0.5;exitY=0;exitDx=0;exitDy=0;entryX=0;entryY=0.5;entryDx=0;entryDy=0;" edge="1" parent="1" source="3FvASTp7XgKbw8yYfNH8-66" target="3FvASTp7XgKbw8yYfNH8-69">
          <mxGeometry relative="1" as="geometry" />
        </mxCell>
        <mxCell id="3FvASTp7XgKbw8yYfNH8-66" value="" style="shape=trapezoid;perimeter=trapezoidPerimeter;whiteSpace=wrap;html=1;fixedSize=1;rotation=90;size=13.269999999999982;" vertex="1" parent="1">
          <mxGeometry x="650" y="140.98000000000005" width="70" height="26.1" as="geometry" />
        </mxCell>
        <mxCell id="3FvASTp7XgKbw8yYfNH8-164" style="edgeStyle=orthogonalEdgeStyle;rounded=0;orthogonalLoop=1;jettySize=auto;html=1;exitX=0.5;exitY=0;exitDx=0;exitDy=0;entryX=0;entryY=0.5;entryDx=0;entryDy=0;" edge="1" parent="1" source="3FvASTp7XgKbw8yYfNH8-67" target="3FvASTp7XgKbw8yYfNH8-71">
          <mxGeometry relative="1" as="geometry" />
        </mxCell>
        <mxCell id="3FvASTp7XgKbw8yYfNH8-67" value="" style="shape=trapezoid;perimeter=trapezoidPerimeter;whiteSpace=wrap;html=1;fixedSize=1;rotation=90;size=13.269999999999982;" vertex="1" parent="1">
          <mxGeometry x="650" y="250.98000000000005" width="70" height="26.1" as="geometry" />
        </mxCell>
        <mxCell id="3FvASTp7XgKbw8yYfNH8-132" style="edgeStyle=orthogonalEdgeStyle;rounded=0;orthogonalLoop=1;jettySize=auto;html=1;exitX=1;exitY=0.5;exitDx=0;exitDy=0;exitPerimeter=0;entryX=0;entryY=0.5;entryDx=0;entryDy=0;" edge="1" parent="1" source="3FvASTp7XgKbw8yYfNH8-68" target="3FvASTp7XgKbw8yYfNH8-23">
          <mxGeometry relative="1" as="geometry" />
        </mxCell>
        <mxCell id="3FvASTp7XgKbw8yYfNH8-68" value="" style="verticalLabelPosition=bottom;verticalAlign=top;html=1;shape=mxgraph.basic.polygon;polyCoords=[[0,0],[1,0.3],[1,0.5],[1,0.7],[0,1],[0,0.6],[0.2,0.5],[0,0.4]];polyline=0;shadow=0;aspect=fixed;points=[[0,0.21,0,0,0],[0,0.79,0,0,0],[0.57,0.83,0,0,0],[1,0.5,0,0,0]];" vertex="1" parent="1">
          <mxGeometry x="760" y="145" width="101.78" height="142.5" as="geometry" />
        </mxCell>
        <mxCell id="3FvASTp7XgKbw8yYfNH8-69" value="A" style="rounded=0;whiteSpace=wrap;html=1;" vertex="1" parent="1">
          <mxGeometry x="760" y="167.08" width="30" height="25" as="geometry" />
        </mxCell>
        <mxCell id="3FvASTp7XgKbw8yYfNH8-70" value="ALU" style="rounded=0;whiteSpace=wrap;html=1;" vertex="1" parent="1">
          <mxGeometry x="810" y="203.75" width="29.29" height="25" as="geometry" />
        </mxCell>
        <mxCell id="3FvASTp7XgKbw8yYfNH8-71" value="B" style="rounded=0;whiteSpace=wrap;html=1;" vertex="1" parent="1">
          <mxGeometry x="760" y="240.85" width="30" height="25" as="geometry" />
        </mxCell>
        <mxCell id="3FvASTp7XgKbw8yYfNH8-74" value="IR" style="rounded=0;whiteSpace=wrap;html=1;movable=1;resizable=1;rotatable=1;deletable=1;editable=1;locked=0;connectable=1;" vertex="1" parent="1">
          <mxGeometry x="1290" y="490" width="30" height="50" as="geometry" />
        </mxCell>
        <mxCell id="3FvASTp7XgKbw8yYfNH8-99" style="edgeStyle=orthogonalEdgeStyle;rounded=0;orthogonalLoop=1;jettySize=auto;html=1;exitX=1;exitY=0.5;exitDx=0;exitDy=0;entryX=0;entryY=0.5;entryDx=0;entryDy=0;" edge="1" parent="1" source="3FvASTp7XgKbw8yYfNH8-75" target="3FvASTp7XgKbw8yYfNH8-24">
          <mxGeometry relative="1" as="geometry" />
        </mxCell>
        <mxCell id="3FvASTp7XgKbw8yYfNH8-75" value="IR" style="rounded=0;whiteSpace=wrap;html=1;movable=1;resizable=1;rotatable=1;deletable=1;editable=1;locked=0;connectable=1;" vertex="1" parent="1">
          <mxGeometry x="500" y="490" width="30" height="50" as="geometry" />
        </mxCell>
        <mxCell id="3FvASTp7XgKbw8yYfNH8-188" style="edgeStyle=orthogonalEdgeStyle;rounded=0;orthogonalLoop=1;jettySize=auto;html=1;exitX=0.5;exitY=0;exitDx=0;exitDy=0;entryX=0;entryY=0.5;entryDx=0;entryDy=0;" edge="1" parent="1" source="3FvASTp7XgKbw8yYfNH8-77" target="3FvASTp7XgKbw8yYfNH8-25">
          <mxGeometry relative="1" as="geometry" />
        </mxCell>
        <mxCell id="3FvASTp7XgKbw8yYfNH8-77" value="" style="shape=trapezoid;perimeter=trapezoidPerimeter;whiteSpace=wrap;html=1;fixedSize=1;rotation=90;size=13.269999999999982;" vertex="1" parent="1">
          <mxGeometry x="861.78" y="366.7" width="60.71" height="19.15" as="geometry" />
        </mxCell>
        <mxCell id="3FvASTp7XgKbw8yYfNH8-219" style="edgeStyle=orthogonalEdgeStyle;rounded=0;orthogonalLoop=1;jettySize=auto;html=1;exitX=1;exitY=0.5;exitDx=0;exitDy=0;entryX=0;entryY=0.5;entryDx=0;entryDy=0;" edge="1" parent="1" source="3FvASTp7XgKbw8yYfNH8-78" target="3FvASTp7XgKbw8yYfNH8-201">
          <mxGeometry relative="1" as="geometry" />
        </mxCell>
        <mxCell id="3FvASTp7XgKbw8yYfNH8-78" value="br_cond" style="rounded=0;whiteSpace=wrap;html=1;" vertex="1" parent="1">
          <mxGeometry x="790" y="299.75" width="60" height="58.05" as="geometry" />
        </mxCell>
        <mxCell id="3FvASTp7XgKbw8yYfNH8-79" value="addr" style="rounded=0;whiteSpace=wrap;html=1;" vertex="1" parent="1">
          <mxGeometry x="1055" y="129.15" width="40" height="25" as="geometry" />
        </mxCell>
        <mxCell id="3FvASTp7XgKbw8yYfNH8-80" value="wdata" style="rounded=0;whiteSpace=wrap;html=1;" vertex="1" parent="1">
          <mxGeometry x="1055" y="179.15" width="40" height="25" as="geometry" />
        </mxCell>
        <mxCell id="3FvASTp7XgKbw8yYfNH8-151" style="edgeStyle=orthogonalEdgeStyle;rounded=0;orthogonalLoop=1;jettySize=auto;html=1;exitX=1;exitY=0.75;exitDx=0;exitDy=0;entryX=0.75;entryY=1;entryDx=0;entryDy=0;fillColor=#f8cecc;strokeColor=#b85450;" edge="1" parent="1" source="3FvASTp7XgKbw8yYfNH8-81" target="3FvASTp7XgKbw8yYfNH8-91">
          <mxGeometry relative="1" as="geometry" />
        </mxCell>
        <mxCell id="3FvASTp7XgKbw8yYfNH8-81" value="rdata" style="rounded=0;whiteSpace=wrap;html=1;" vertex="1" parent="1">
          <mxGeometry x="1105" y="159.15" width="40" height="25" as="geometry" />
        </mxCell>
        <mxCell id="3FvASTp7XgKbw8yYfNH8-82" value="PC" style="rounded=0;whiteSpace=wrap;html=1;" vertex="1" parent="1">
          <mxGeometry x="1030" y="320.85" width="40" height="25" as="geometry" />
        </mxCell>
        <mxCell id="3FvASTp7XgKbw8yYfNH8-83" value="addr" style="rounded=0;whiteSpace=wrap;html=1;" vertex="1" parent="1">
          <mxGeometry x="1030" y="360.85" width="40" height="25" as="geometry" />
        </mxCell>
        <mxCell id="3FvASTp7XgKbw8yYfNH8-84" value="interrupt" style="rounded=0;whiteSpace=wrap;html=1;" vertex="1" parent="1">
          <mxGeometry x="1030" y="400.85" width="50" height="25" as="geometry" />
        </mxCell>
        <mxCell id="3FvASTp7XgKbw8yYfNH8-85" value="operand" style="rounded=0;whiteSpace=wrap;html=1;" vertex="1" parent="1">
          <mxGeometry x="1030" y="440" width="60" height="25" as="geometry" />
        </mxCell>
        <mxCell id="3FvASTp7XgKbw8yYfNH8-190" style="edgeStyle=orthogonalEdgeStyle;rounded=0;orthogonalLoop=1;jettySize=auto;html=1;exitX=0;exitY=0.25;exitDx=0;exitDy=0;" edge="1" parent="1" source="3FvASTp7XgKbw8yYfNH8-86">
          <mxGeometry relative="1" as="geometry">
            <mxPoint x="989.9999999999995" y="520" as="targetPoint" />
          </mxGeometry>
        </mxCell>
        <mxCell id="3FvASTp7XgKbw8yYfNH8-86" value="inst" style="rounded=0;whiteSpace=wrap;html=1;" vertex="1" parent="1">
          <mxGeometry x="1030" y="475" width="40" height="25" as="geometry" />
        </mxCell>
        <mxCell id="3FvASTp7XgKbw8yYfNH8-89" value="" style="edgeStyle=orthogonalEdgeStyle;rounded=0;orthogonalLoop=1;jettySize=auto;html=1;" edge="1" parent="1" source="3FvASTp7XgKbw8yYfNH8-87" target="3FvASTp7XgKbw8yYfNH8-88">
          <mxGeometry relative="1" as="geometry" />
        </mxCell>
        <mxCell id="3FvASTp7XgKbw8yYfNH8-87" value="rdata" style="rounded=0;whiteSpace=wrap;html=1;" vertex="1" parent="1">
          <mxGeometry x="1150" y="360.85" width="40" height="25" as="geometry" />
        </mxCell>
        <mxCell id="3FvASTp7XgKbw8yYfNH8-88" value="epc" style="rounded=0;whiteSpace=wrap;html=1;" vertex="1" parent="1">
          <mxGeometry x="1150" y="430" width="40" height="25" as="geometry" />
        </mxCell>
        <mxCell id="3FvASTp7XgKbw8yYfNH8-138" style="edgeStyle=orthogonalEdgeStyle;rounded=0;orthogonalLoop=1;jettySize=auto;html=1;exitX=0.5;exitY=1;exitDx=0;exitDy=0;entryX=0.25;entryY=1;entryDx=0;entryDy=0;" edge="1" parent="1" source="3FvASTp7XgKbw8yYfNH8-90" target="3FvASTp7XgKbw8yYfNH8-91">
          <mxGeometry relative="1" as="geometry" />
        </mxCell>
        <mxCell id="3FvASTp7XgKbw8yYfNH8-90" value="&lt;font style=&quot;font-size: 17px;&quot;&gt;+4&lt;/font&gt;" style="rounded=0;whiteSpace=wrap;html=1;" vertex="1" parent="1">
          <mxGeometry x="1230" y="11.699999999999996" width="40" height="34.15" as="geometry" />
        </mxCell>
        <mxCell id="3FvASTp7XgKbw8yYfNH8-91" value="" style="shape=trapezoid;perimeter=trapezoidPerimeter;whiteSpace=wrap;html=1;fixedSize=1;rotation=90;size=13.269999999999982;" vertex="1" parent="1">
          <mxGeometry x="1290" y="215.4" width="256.64" height="50.45" as="geometry" />
        </mxCell>
        <mxCell id="3FvASTp7XgKbw8yYfNH8-95" value="" style="endArrow=none;html=1;rounded=0;" edge="1" parent="1">
          <mxGeometry width="50" height="50" relative="1" as="geometry">
            <mxPoint x="260" y="520" as="sourcePoint" />
            <mxPoint x="260" y="250.98" as="targetPoint" />
          </mxGeometry>
        </mxCell>
        <mxCell id="3FvASTp7XgKbw8yYfNH8-97" value="" style="endArrow=classic;html=1;rounded=0;entryX=0;entryY=0.5;entryDx=0;entryDy=0;" edge="1" parent="1" target="3FvASTp7XgKbw8yYfNH8-75">
          <mxGeometry width="50" height="50" relative="1" as="geometry">
            <mxPoint x="260" y="520" as="sourcePoint" />
            <mxPoint x="310" y="470" as="targetPoint" />
          </mxGeometry>
        </mxCell>
        <mxCell id="3FvASTp7XgKbw8yYfNH8-103" value="" style="endArrow=none;html=1;rounded=0;" edge="1" parent="1">
          <mxGeometry width="50" height="50" relative="1" as="geometry">
            <mxPoint x="1320" y="514.58" as="sourcePoint" />
            <mxPoint x="1380" y="514.58" as="targetPoint" />
          </mxGeometry>
        </mxCell>
        <mxCell id="3FvASTp7XgKbw8yYfNH8-105" value="" style="endArrow=none;html=1;rounded=0;" edge="1" parent="1">
          <mxGeometry width="50" height="50" relative="1" as="geometry">
            <mxPoint x="1380" y="511.00000000000006" as="sourcePoint" />
            <mxPoint x="1380" y="588.0866666666666" as="targetPoint" />
          </mxGeometry>
        </mxCell>
        <mxCell id="3FvASTp7XgKbw8yYfNH8-107" value="" style="endArrow=none;html=1;rounded=0;" edge="1" parent="1">
          <mxGeometry width="50" height="50" relative="1" as="geometry">
            <mxPoint x="300" y="590" as="sourcePoint" />
            <mxPoint x="1380" y="590" as="targetPoint" />
          </mxGeometry>
        </mxCell>
        <mxCell id="3FvASTp7XgKbw8yYfNH8-108" value="" style="endArrow=none;html=1;rounded=0;" edge="1" parent="1">
          <mxGeometry width="50" height="50" relative="1" as="geometry">
            <mxPoint x="300" y="590" as="sourcePoint" />
            <mxPoint x="300" y="210" as="targetPoint" />
          </mxGeometry>
        </mxCell>
        <mxCell id="3FvASTp7XgKbw8yYfNH8-109" value="" style="endArrow=none;html=1;rounded=0;entryX=0;entryY=0.5;entryDx=0;entryDy=0;" edge="1" parent="1" target="3FvASTp7XgKbw8yYfNH8-60">
          <mxGeometry width="50" height="50" relative="1" as="geometry">
            <mxPoint x="300" y="210.98000000000002" as="sourcePoint" />
            <mxPoint x="350" y="160.98000000000002" as="targetPoint" />
          </mxGeometry>
        </mxCell>
        <mxCell id="3FvASTp7XgKbw8yYfNH8-117" value="" style="endArrow=none;html=1;rounded=0;" edge="1" parent="1">
          <mxGeometry width="50" height="50" relative="1" as="geometry">
            <mxPoint x="1440" y="239.95" as="sourcePoint" />
            <mxPoint x="1530" y="239.95" as="targetPoint" />
          </mxGeometry>
        </mxCell>
        <mxCell id="3FvASTp7XgKbw8yYfNH8-118" value="" style="endArrow=none;html=1;rounded=0;" edge="1" parent="1">
          <mxGeometry width="50" height="50" relative="1" as="geometry">
            <mxPoint x="1520" y="640" as="sourcePoint" />
            <mxPoint x="1530" y="241.95" as="targetPoint" />
          </mxGeometry>
        </mxCell>
        <mxCell id="3FvASTp7XgKbw8yYfNH8-119" value="" style="endArrow=none;html=1;rounded=0;" edge="1" parent="1">
          <mxGeometry width="50" height="50" relative="1" as="geometry">
            <mxPoint x="310" y="640" as="sourcePoint" />
            <mxPoint x="1520" y="640" as="targetPoint" />
          </mxGeometry>
        </mxCell>
        <mxCell id="3FvASTp7XgKbw8yYfNH8-120" value="" style="endArrow=none;html=1;rounded=0;" edge="1" parent="1">
          <mxGeometry width="50" height="50" relative="1" as="geometry">
            <mxPoint x="310" y="640" as="sourcePoint" />
            <mxPoint x="310" y="250" as="targetPoint" />
          </mxGeometry>
        </mxCell>
        <mxCell id="3FvASTp7XgKbw8yYfNH8-122" value="" style="endArrow=classic;html=1;rounded=0;" edge="1" parent="1">
          <mxGeometry width="50" height="50" relative="1" as="geometry">
            <mxPoint x="310" y="250.98" as="sourcePoint" />
            <mxPoint x="320" y="250" as="targetPoint" />
          </mxGeometry>
        </mxCell>
        <mxCell id="3FvASTp7XgKbw8yYfNH8-125" value="" style="endArrow=none;html=1;rounded=0;" edge="1" parent="1">
          <mxGeometry width="50" height="50" relative="1" as="geometry">
            <mxPoint x="1480" y="240.85" as="sourcePoint" />
            <mxPoint x="1480" y="80" as="targetPoint" />
          </mxGeometry>
        </mxCell>
        <mxCell id="3FvASTp7XgKbw8yYfNH8-126" value="" style="endArrow=none;html=1;rounded=0;" edge="1" parent="1">
          <mxGeometry width="50" height="50" relative="1" as="geometry">
            <mxPoint x="530" y="80" as="sourcePoint" />
            <mxPoint x="1480" y="80" as="targetPoint" />
          </mxGeometry>
        </mxCell>
        <mxCell id="3FvASTp7XgKbw8yYfNH8-127" value="" style="endArrow=none;html=1;rounded=0;" edge="1" parent="1">
          <mxGeometry width="50" height="50" relative="1" as="geometry">
            <mxPoint x="530" y="280" as="sourcePoint" />
            <mxPoint x="530" y="79.14999999999998" as="targetPoint" />
          </mxGeometry>
        </mxCell>
        <mxCell id="3FvASTp7XgKbw8yYfNH8-128" value="" style="endArrow=classic;html=1;rounded=0;entryX=0.5;entryY=1;entryDx=0;entryDy=0;" edge="1" parent="1" target="3FvASTp7XgKbw8yYfNH8-64">
          <mxGeometry width="50" height="50" relative="1" as="geometry">
            <mxPoint x="530" y="154.15" as="sourcePoint" />
            <mxPoint x="560" y="154" as="targetPoint" />
          </mxGeometry>
        </mxCell>
        <mxCell id="3FvASTp7XgKbw8yYfNH8-130" value="" style="endArrow=classic;html=1;rounded=0;entryX=0.5;entryY=1;entryDx=0;entryDy=0;" edge="1" parent="1">
          <mxGeometry width="50" height="50" relative="1" as="geometry">
            <mxPoint x="530" y="280.15" as="sourcePoint" />
            <mxPoint x="562" y="280" as="targetPoint" />
          </mxGeometry>
        </mxCell>
        <mxCell id="3FvASTp7XgKbw8yYfNH8-131" value="" style="endArrow=none;html=1;rounded=0;" edge="1" parent="1">
          <mxGeometry width="50" height="50" relative="1" as="geometry">
            <mxPoint x="889" y="220" as="sourcePoint" />
            <mxPoint x="889.29" y="104.15" as="targetPoint" />
          </mxGeometry>
        </mxCell>
        <mxCell id="3FvASTp7XgKbw8yYfNH8-133" value="" style="endArrow=none;html=1;rounded=0;" edge="1" parent="1">
          <mxGeometry width="50" height="50" relative="1" as="geometry">
            <mxPoint x="540" y="100" as="sourcePoint" />
            <mxPoint x="889.29" y="104.15" as="targetPoint" />
          </mxGeometry>
        </mxCell>
        <mxCell id="3FvASTp7XgKbw8yYfNH8-134" value="" style="endArrow=none;html=1;rounded=0;" edge="1" parent="1">
          <mxGeometry width="50" height="50" relative="1" as="geometry">
            <mxPoint x="540" y="300" as="sourcePoint" />
            <mxPoint x="540" y="100" as="targetPoint" />
          </mxGeometry>
        </mxCell>
        <mxCell id="3FvASTp7XgKbw8yYfNH8-135" value="" style="endArrow=classic;html=1;rounded=0;entryX=0.25;entryY=1;entryDx=0;entryDy=0;" edge="1" parent="1" target="3FvASTp7XgKbw8yYfNH8-64">
          <mxGeometry width="50" height="50" relative="1" as="geometry">
            <mxPoint x="540" y="139.55" as="sourcePoint" />
            <mxPoint x="560" y="140" as="targetPoint" />
          </mxGeometry>
        </mxCell>
        <mxCell id="3FvASTp7XgKbw8yYfNH8-136" value="" style="endArrow=classic;html=1;rounded=0;entryX=1;entryY=1;entryDx=0;entryDy=0;" edge="1" parent="1" target="3FvASTp7XgKbw8yYfNH8-65">
          <mxGeometry width="50" height="50" relative="1" as="geometry">
            <mxPoint x="540" y="298.34999999999997" as="sourcePoint" />
            <mxPoint x="560" y="298" as="targetPoint" />
          </mxGeometry>
        </mxCell>
        <mxCell id="3FvASTp7XgKbw8yYfNH8-146" value="" style="endArrow=none;html=1;rounded=0;" edge="1" parent="1">
          <mxGeometry width="50" height="50" relative="1" as="geometry">
            <mxPoint x="990" y="173.78" as="sourcePoint" />
            <mxPoint x="990" y="53.78" as="targetPoint" />
          </mxGeometry>
        </mxCell>
        <mxCell id="3FvASTp7XgKbw8yYfNH8-147" value="" style="endArrow=none;html=1;rounded=0;" edge="1" parent="1">
          <mxGeometry width="50" height="50" relative="1" as="geometry">
            <mxPoint x="990" y="53.78" as="sourcePoint" />
            <mxPoint x="1210" y="54" as="targetPoint" />
          </mxGeometry>
        </mxCell>
        <mxCell id="3FvASTp7XgKbw8yYfNH8-148" value="" style="endArrow=none;html=1;rounded=0;" edge="1" parent="1">
          <mxGeometry width="50" height="50" relative="1" as="geometry">
            <mxPoint x="1210" y="220" as="sourcePoint" />
            <mxPoint x="1210" y="53.78" as="targetPoint" />
          </mxGeometry>
        </mxCell>
        <mxCell id="3FvASTp7XgKbw8yYfNH8-149" value="" style="endArrow=classic;html=1;rounded=0;entryX=0.412;entryY=0.974;entryDx=0;entryDy=0;entryPerimeter=0;" edge="1" parent="1" target="3FvASTp7XgKbw8yYfNH8-91">
          <mxGeometry width="50" height="50" relative="1" as="geometry">
            <mxPoint x="1210" y="218.57" as="sourcePoint" />
            <mxPoint x="1350" y="218.57" as="targetPoint" />
          </mxGeometry>
        </mxCell>
        <mxCell id="3FvASTp7XgKbw8yYfNH8-152" style="edgeStyle=orthogonalEdgeStyle;rounded=0;orthogonalLoop=1;jettySize=auto;html=1;exitX=1;exitY=0.5;exitDx=0;exitDy=0;entryX=0.886;entryY=1.059;entryDx=0;entryDy=0;entryPerimeter=0;" edge="1" parent="1" source="3FvASTp7XgKbw8yYfNH8-87" target="3FvASTp7XgKbw8yYfNH8-91">
          <mxGeometry relative="1" as="geometry" />
        </mxCell>
        <mxCell id="3FvASTp7XgKbw8yYfNH8-153" value="" style="endArrow=none;html=1;rounded=0;" edge="1" parent="1">
          <mxGeometry width="50" height="50" relative="1" as="geometry">
            <mxPoint x="990" y="53.78" as="sourcePoint" />
            <mxPoint x="990" y="-20" as="targetPoint" />
          </mxGeometry>
        </mxCell>
        <mxCell id="3FvASTp7XgKbw8yYfNH8-154" value="" style="endArrow=none;html=1;rounded=0;" edge="1" parent="1">
          <mxGeometry width="50" height="50" relative="1" as="geometry">
            <mxPoint x="140" y="-20" as="sourcePoint" />
            <mxPoint x="990" y="-20" as="targetPoint" />
          </mxGeometry>
        </mxCell>
        <mxCell id="3FvASTp7XgKbw8yYfNH8-155" value="" style="endArrow=none;html=1;rounded=0;" edge="1" parent="1">
          <mxGeometry width="50" height="50" relative="1" as="geometry">
            <mxPoint x="90" y="30" as="sourcePoint" />
            <mxPoint x="140" y="-20" as="targetPoint" />
          </mxGeometry>
        </mxCell>
        <mxCell id="3FvASTp7XgKbw8yYfNH8-156" value="" style="endArrow=none;html=1;rounded=0;" edge="1" parent="1">
          <mxGeometry width="50" height="50" relative="1" as="geometry">
            <mxPoint x="-180" y="30" as="sourcePoint" />
            <mxPoint x="90" y="30" as="targetPoint" />
          </mxGeometry>
        </mxCell>
        <mxCell id="3FvASTp7XgKbw8yYfNH8-157" value="" style="endArrow=none;html=1;rounded=0;" edge="1" parent="1">
          <mxGeometry width="50" height="50" relative="1" as="geometry">
            <mxPoint x="-180" y="280" as="sourcePoint" />
            <mxPoint x="-180" y="30" as="targetPoint" />
          </mxGeometry>
        </mxCell>
        <mxCell id="3FvASTp7XgKbw8yYfNH8-158" value="" style="endArrow=classic;html=1;rounded=0;entryX=0.5;entryY=1;entryDx=0;entryDy=0;" edge="1" parent="1" target="3FvASTp7XgKbw8yYfNH8-17">
          <mxGeometry width="50" height="50" relative="1" as="geometry">
            <mxPoint x="-180" y="280" as="sourcePoint" />
            <mxPoint x="-130" y="230" as="targetPoint" />
          </mxGeometry>
        </mxCell>
        <mxCell id="3FvASTp7XgKbw8yYfNH8-161" value="" style="endArrow=none;html=1;rounded=0;" edge="1" parent="1">
          <mxGeometry width="50" height="50" relative="1" as="geometry">
            <mxPoint x="650" y="130" as="sourcePoint" />
            <mxPoint x="650" y="30" as="targetPoint" />
          </mxGeometry>
        </mxCell>
        <mxCell id="3FvASTp7XgKbw8yYfNH8-162" value="" style="endArrow=classic;html=1;rounded=0;" edge="1" parent="1">
          <mxGeometry width="50" height="50" relative="1" as="geometry">
            <mxPoint x="650" y="130" as="sourcePoint" />
            <mxPoint x="670" y="130" as="targetPoint" />
          </mxGeometry>
        </mxCell>
        <mxCell id="3FvASTp7XgKbw8yYfNH8-165" value="" style="endArrow=none;html=1;rounded=0;fillColor=#f8cecc;strokeColor=#b85450;" edge="1" parent="1">
          <mxGeometry width="50" height="50" relative="1" as="geometry">
            <mxPoint x="640" y="320" as="sourcePoint" />
            <mxPoint x="640" y="155.85" as="targetPoint" />
          </mxGeometry>
        </mxCell>
        <mxCell id="3FvASTp7XgKbw8yYfNH8-167" value="" style="endArrow=classic;html=1;rounded=0;fillColor=#f8cecc;strokeColor=#b85450;entryX=0;entryY=0.5;entryDx=0;entryDy=0;" edge="1" parent="1" target="3FvASTp7XgKbw8yYfNH8-78">
          <mxGeometry width="50" height="50" relative="1" as="geometry">
            <mxPoint x="640" y="320" as="sourcePoint" />
            <mxPoint x="780" y="320" as="targetPoint" />
          </mxGeometry>
        </mxCell>
        <mxCell id="3FvASTp7XgKbw8yYfNH8-168" value="" style="endArrow=none;html=1;rounded=0;fillColor=#dae8fc;strokeColor=#6c8ebf;" edge="1" parent="1">
          <mxGeometry width="50" height="50" relative="1" as="geometry">
            <mxPoint x="620" y="340" as="sourcePoint" />
            <mxPoint x="620" y="270" as="targetPoint" />
          </mxGeometry>
        </mxCell>
        <mxCell id="3FvASTp7XgKbw8yYfNH8-169" value="" style="endArrow=classic;html=1;rounded=0;entryX=0;entryY=0.75;entryDx=0;entryDy=0;fillColor=#dae8fc;strokeColor=#6c8ebf;" edge="1" parent="1" target="3FvASTp7XgKbw8yYfNH8-78">
          <mxGeometry width="50" height="50" relative="1" as="geometry">
            <mxPoint x="620" y="343" as="sourcePoint" />
            <mxPoint x="670" y="280" as="targetPoint" />
          </mxGeometry>
        </mxCell>
        <mxCell id="3FvASTp7XgKbw8yYfNH8-173" value="" style="endArrow=classic;html=1;rounded=0;entryX=0.75;entryY=1;entryDx=0;entryDy=0;" edge="1" parent="1" target="3FvASTp7XgKbw8yYfNH8-77">
          <mxGeometry width="50" height="50" relative="1" as="geometry">
            <mxPoint x="680" y="385.85" as="sourcePoint" />
            <mxPoint x="730" y="335.85" as="targetPoint" />
          </mxGeometry>
        </mxCell>
        <mxCell id="3FvASTp7XgKbw8yYfNH8-174" value="" style="endArrow=none;html=1;rounded=0;fillColor=#f8cecc;strokeColor=#b85450;" edge="1" parent="1">
          <mxGeometry width="50" height="50" relative="1" as="geometry">
            <mxPoint x="719" y="370" as="sourcePoint" />
            <mxPoint x="718.5699999999999" y="315.85" as="targetPoint" />
          </mxGeometry>
        </mxCell>
        <mxCell id="3FvASTp7XgKbw8yYfNH8-176" value="" style="endArrow=classic;html=1;rounded=0;entryX=0.5;entryY=1;entryDx=0;entryDy=0;fillColor=#f8cecc;strokeColor=#b85450;" edge="1" parent="1" target="3FvASTp7XgKbw8yYfNH8-77">
          <mxGeometry width="50" height="50" relative="1" as="geometry">
            <mxPoint x="720" y="370.85" as="sourcePoint" />
            <mxPoint x="770" y="320.85" as="targetPoint" />
          </mxGeometry>
        </mxCell>
        <mxCell id="3FvASTp7XgKbw8yYfNH8-177" value="" style="endArrow=classic;html=1;rounded=0;entryX=0;entryY=0.5;entryDx=0;entryDy=0;" edge="1" parent="1" target="3FvASTp7XgKbw8yYfNH8-21">
          <mxGeometry width="50" height="50" relative="1" as="geometry">
            <mxPoint x="260" y="401.27" as="sourcePoint" />
            <mxPoint x="310" y="351.27" as="targetPoint" />
          </mxGeometry>
        </mxCell>
        <mxCell id="3FvASTp7XgKbw8yYfNH8-178" value="" style="endArrow=none;html=1;rounded=0;fillColor=#dae8fc;strokeColor=#6c8ebf;" edge="1" parent="1">
          <mxGeometry width="50" height="50" relative="1" as="geometry">
            <mxPoint x="740" y="345.85" as="sourcePoint" />
            <mxPoint x="740" y="296" as="targetPoint" />
          </mxGeometry>
        </mxCell>
        <mxCell id="3FvASTp7XgKbw8yYfNH8-179" value="" style="endArrow=classic;html=1;rounded=0;entryX=0;entryY=0.5;entryDx=0;entryDy=0;fillColor=#dae8fc;strokeColor=#6c8ebf;" edge="1" parent="1" target="3FvASTp7XgKbw8yYfNH8-26">
          <mxGeometry width="50" height="50" relative="1" as="geometry">
            <mxPoint x="740" y="295.98" as="sourcePoint" />
            <mxPoint x="790" y="245.98" as="targetPoint" />
          </mxGeometry>
        </mxCell>
        <mxCell id="3FvASTp7XgKbw8yYfNH8-181" value="" style="endArrow=none;html=1;rounded=0;" edge="1" parent="1">
          <mxGeometry width="50" height="50" relative="1" as="geometry">
            <mxPoint x="1000" y="330" as="sourcePoint" />
            <mxPoint x="1000" y="25.85" as="targetPoint" />
          </mxGeometry>
        </mxCell>
        <mxCell id="3FvASTp7XgKbw8yYfNH8-182" value="" style="endArrow=classic;html=1;rounded=0;entryX=0;entryY=0.25;entryDx=0;entryDy=0;" edge="1" parent="1" target="3FvASTp7XgKbw8yYfNH8-82">
          <mxGeometry width="50" height="50" relative="1" as="geometry">
            <mxPoint x="1000" y="330" as="sourcePoint" />
            <mxPoint x="1050" y="280" as="targetPoint" />
          </mxGeometry>
        </mxCell>
        <mxCell id="3FvASTp7XgKbw8yYfNH8-184" value="" style="endArrow=none;html=1;rounded=0;" edge="1" parent="1">
          <mxGeometry width="50" height="50" relative="1" as="geometry">
            <mxPoint x="980" y="370" as="sourcePoint" />
            <mxPoint x="980" y="170" as="targetPoint" />
          </mxGeometry>
        </mxCell>
        <mxCell id="3FvASTp7XgKbw8yYfNH8-186" value="" style="endArrow=classic;html=1;rounded=0;entryX=0;entryY=0.5;entryDx=0;entryDy=0;" edge="1" parent="1" target="3FvASTp7XgKbw8yYfNH8-83">
          <mxGeometry width="50" height="50" relative="1" as="geometry">
            <mxPoint x="980" y="370.85" as="sourcePoint" />
            <mxPoint x="1030" y="320.85" as="targetPoint" />
          </mxGeometry>
        </mxCell>
        <mxCell id="3FvASTp7XgKbw8yYfNH8-187" value="" style="endArrow=classic;html=1;rounded=0;" edge="1" parent="1">
          <mxGeometry width="50" height="50" relative="1" as="geometry">
            <mxPoint x="1000" y="410" as="sourcePoint" />
            <mxPoint x="1030" y="410" as="targetPoint" />
          </mxGeometry>
        </mxCell>
        <mxCell id="3FvASTp7XgKbw8yYfNH8-192" value="" style="endArrow=none;html=1;rounded=0;" edge="1" parent="1">
          <mxGeometry width="50" height="50" relative="1" as="geometry">
            <mxPoint x="1190" y="441.79" as="sourcePoint" />
            <mxPoint x="1270" y="441.79" as="targetPoint" />
          </mxGeometry>
        </mxCell>
        <mxCell id="3FvASTp7XgKbw8yYfNH8-193" value="" style="endArrow=none;html=1;rounded=0;" edge="1" parent="1">
          <mxGeometry width="50" height="50" relative="1" as="geometry">
            <mxPoint x="1270" y="720" as="sourcePoint" />
            <mxPoint x="1270" y="440" as="targetPoint" />
          </mxGeometry>
        </mxCell>
        <mxCell id="3FvASTp7XgKbw8yYfNH8-194" value="" style="endArrow=none;html=1;rounded=0;" edge="1" parent="1">
          <mxGeometry width="50" height="50" relative="1" as="geometry">
            <mxPoint x="-150" y="720" as="sourcePoint" />
            <mxPoint x="1270" y="720" as="targetPoint" />
          </mxGeometry>
        </mxCell>
        <mxCell id="3FvASTp7XgKbw8yYfNH8-195" value="" style="endArrow=none;html=1;rounded=0;" edge="1" parent="1">
          <mxGeometry width="50" height="50" relative="1" as="geometry">
            <mxPoint x="-150" y="720" as="sourcePoint" />
            <mxPoint x="-150" y="290" as="targetPoint" />
          </mxGeometry>
        </mxCell>
        <mxCell id="3FvASTp7XgKbw8yYfNH8-196" value="" style="endArrow=classic;html=1;rounded=0;entryX=0.75;entryY=1;entryDx=0;entryDy=0;" edge="1" parent="1" target="3FvASTp7XgKbw8yYfNH8-17">
          <mxGeometry width="50" height="50" relative="1" as="geometry">
            <mxPoint x="-150" y="295.98" as="sourcePoint" />
            <mxPoint x="-100" y="245.98" as="targetPoint" />
          </mxGeometry>
        </mxCell>
        <mxCell id="3FvASTp7XgKbw8yYfNH8-197" value="&lt;font style=&quot;font-size: 8px;&quot;&gt;&lt;b&gt;Controller&lt;/b&gt;&lt;/font&gt;" style="rounded=0;whiteSpace=wrap;html=1;points=[[0,0,0,0,0],[0,0.25,0,0,0],[0,0.5,0,0,0],[0,0.75,0,0,0],[0,1,0,0,0],[0.25,0,0,0,0],[0.25,1,0,0,0],[0.5,0,0,0,0],[0.5,1,0,0,0],[0.75,0,0,0,0],[0.75,1,0,0,0],[1,0.12,0,0,0],[1,0.31,0,0,0],[1,0.5,0,0,0],[1,0.69,0,0,0],[1,0.88,0,0,0]];" vertex="1" parent="1">
          <mxGeometry x="350" y="815" width="120" height="150" as="geometry" />
        </mxCell>
        <mxCell id="3FvASTp7XgKbw8yYfNH8-198" value="&lt;font style=&quot;font-size: 8px;&quot;&gt;opcode&lt;/font&gt;" style="text;html=1;strokeColor=none;fillColor=none;align=center;verticalAlign=middle;whiteSpace=wrap;rounded=0;" vertex="1" parent="1">
          <mxGeometry x="360" y="815" width="30" height="20" as="geometry" />
        </mxCell>
        <mxCell id="3FvASTp7XgKbw8yYfNH8-199" value="&lt;font style=&quot;font-size: 8px;&quot;&gt;funct3&lt;/font&gt;" style="text;html=1;strokeColor=none;fillColor=none;align=center;verticalAlign=middle;whiteSpace=wrap;rounded=0;" vertex="1" parent="1">
          <mxGeometry x="395" y="815" width="30" height="20" as="geometry" />
        </mxCell>
        <mxCell id="3FvASTp7XgKbw8yYfNH8-200" value="&lt;font style=&quot;font-size: 8px;&quot;&gt;funct7&lt;/font&gt;" style="text;html=1;strokeColor=none;fillColor=none;align=center;verticalAlign=middle;whiteSpace=wrap;rounded=0;horizontal=1;" vertex="1" parent="1">
          <mxGeometry x="430" y="815" width="30" height="20" as="geometry" />
        </mxCell>
        <mxCell id="3FvASTp7XgKbw8yYfNH8-201" value="&lt;font style=&quot;font-size: 8px;&quot;&gt;comp&lt;/font&gt;" style="text;html=1;strokeColor=none;fillColor=none;align=center;verticalAlign=middle;whiteSpace=wrap;rounded=0;" vertex="1" parent="1">
          <mxGeometry x="350" y="880" width="30" height="20" as="geometry" />
        </mxCell>
        <mxCell id="3FvASTp7XgKbw8yYfNH8-202" value="" style="endArrow=open;html=1;rounded=0;labelBackgroundColor=default;strokeColor=#ff0000;align=center;verticalAlign=middle;fontFamily=Helvetica;fontSize=11;fontColor=default;shape=connector;entryX=0;entryY=0.5;entryDx=0;entryDy=0;endFill=0;" edge="1" parent="1" target="3FvASTp7XgKbw8yYfNH8-203">
          <mxGeometry width="50" height="50" relative="1" as="geometry">
            <mxPoint x="470" y="824.67" as="sourcePoint" />
            <mxPoint x="550" y="825" as="targetPoint" />
          </mxGeometry>
        </mxCell>
        <mxCell id="3FvASTp7XgKbw8yYfNH8-203" value="&lt;font color=&quot;#ff0000&quot;&gt;pc_sel&lt;/font&gt;" style="text;html=1;strokeColor=none;fillColor=none;align=center;verticalAlign=middle;whiteSpace=wrap;rounded=0;fontSize=11;fontFamily=Helvetica;fontColor=default;" vertex="1" parent="1">
          <mxGeometry x="500" y="810" width="40" height="30" as="geometry" />
        </mxCell>
        <mxCell id="3FvASTp7XgKbw8yYfNH8-204" value="" style="endArrow=open;html=1;rounded=0;labelBackgroundColor=default;strokeColor=#ff0000;align=center;verticalAlign=middle;fontFamily=Helvetica;fontSize=11;fontColor=default;shape=connector;entryX=0;entryY=0.5;entryDx=0;entryDy=0;endFill=0;" edge="1" parent="1" target="3FvASTp7XgKbw8yYfNH8-205">
          <mxGeometry width="50" height="50" relative="1" as="geometry">
            <mxPoint x="470" y="847.17" as="sourcePoint" />
            <mxPoint x="550" y="847.5" as="targetPoint" />
          </mxGeometry>
        </mxCell>
        <mxCell id="3FvASTp7XgKbw8yYfNH8-205" value="&lt;font color=&quot;#ff0000&quot;&gt;opr_a_sel&lt;/font&gt;" style="text;html=1;strokeColor=none;fillColor=none;align=center;verticalAlign=middle;whiteSpace=wrap;rounded=0;fontSize=11;fontFamily=Helvetica;fontColor=default;" vertex="1" parent="1">
          <mxGeometry x="500" y="832.5" width="60" height="30" as="geometry" />
        </mxCell>
        <mxCell id="3FvASTp7XgKbw8yYfNH8-206" value="" style="endArrow=open;html=1;rounded=0;labelBackgroundColor=default;strokeColor=#ff0000;align=center;verticalAlign=middle;fontFamily=Helvetica;fontSize=11;fontColor=default;shape=connector;entryX=0;entryY=0.5;entryDx=0;entryDy=0;endFill=0;" edge="1" parent="1" target="3FvASTp7XgKbw8yYfNH8-207">
          <mxGeometry width="50" height="50" relative="1" as="geometry">
            <mxPoint x="470" y="868.67" as="sourcePoint" />
            <mxPoint x="550" y="869" as="targetPoint" />
          </mxGeometry>
        </mxCell>
        <mxCell id="3FvASTp7XgKbw8yYfNH8-207" value="&lt;font color=&quot;#ff0000&quot;&gt;opr_b_sel&lt;/font&gt;" style="text;html=1;strokeColor=none;fillColor=none;align=center;verticalAlign=middle;whiteSpace=wrap;rounded=0;fontSize=11;fontFamily=Helvetica;fontColor=default;" vertex="1" parent="1">
          <mxGeometry x="500" y="854" width="60" height="30" as="geometry" />
        </mxCell>
        <mxCell id="3FvASTp7XgKbw8yYfNH8-208" value="" style="endArrow=open;html=1;rounded=0;labelBackgroundColor=default;strokeColor=#ff0000;align=center;verticalAlign=middle;fontFamily=Helvetica;fontSize=11;fontColor=default;shape=connector;entryX=0;entryY=0.5;entryDx=0;entryDy=0;endFill=0;" edge="1" parent="1" target="3FvASTp7XgKbw8yYfNH8-209">
          <mxGeometry width="50" height="50" relative="1" as="geometry">
            <mxPoint x="470" y="888.67" as="sourcePoint" />
            <mxPoint x="550" y="889" as="targetPoint" />
          </mxGeometry>
        </mxCell>
        <mxCell id="3FvASTp7XgKbw8yYfNH8-209" value="&lt;font color=&quot;#ff0000&quot;&gt;wb_sel&lt;/font&gt;" style="text;html=1;strokeColor=none;fillColor=none;align=center;verticalAlign=middle;whiteSpace=wrap;rounded=0;fontSize=11;fontFamily=Helvetica;fontColor=default;" vertex="1" parent="1">
          <mxGeometry x="500" y="874" width="50" height="30" as="geometry" />
        </mxCell>
        <mxCell id="3FvASTp7XgKbw8yYfNH8-210" value="" style="endArrow=open;html=1;rounded=0;labelBackgroundColor=default;strokeColor=#ff0000;align=center;verticalAlign=middle;fontFamily=Helvetica;fontSize=11;fontColor=default;shape=connector;entryX=0;entryY=0.5;entryDx=0;entryDy=0;endFill=0;" edge="1" parent="1" target="3FvASTp7XgKbw8yYfNH8-211">
          <mxGeometry width="50" height="50" relative="1" as="geometry">
            <mxPoint x="470" y="909.67" as="sourcePoint" />
            <mxPoint x="550" y="910" as="targetPoint" />
          </mxGeometry>
        </mxCell>
        <mxCell id="3FvASTp7XgKbw8yYfNH8-211" value="&lt;font color=&quot;#ff0000&quot;&gt;rf_en&lt;/font&gt;" style="text;html=1;strokeColor=none;fillColor=none;align=center;verticalAlign=middle;whiteSpace=wrap;rounded=0;fontSize=11;fontFamily=Helvetica;fontColor=default;" vertex="1" parent="1">
          <mxGeometry x="500" y="895" width="40" height="30" as="geometry" />
        </mxCell>
        <mxCell id="3FvASTp7XgKbw8yYfNH8-212" value="" style="endArrow=open;html=1;rounded=0;labelBackgroundColor=default;strokeColor=#ff0000;align=center;verticalAlign=middle;fontFamily=Helvetica;fontSize=11;fontColor=default;shape=connector;entryX=0;entryY=0.5;entryDx=0;entryDy=0;endFill=0;" edge="1" parent="1" target="3FvASTp7XgKbw8yYfNH8-213">
          <mxGeometry width="50" height="50" relative="1" as="geometry">
            <mxPoint x="470" y="929.67" as="sourcePoint" />
            <mxPoint x="550" y="930" as="targetPoint" />
          </mxGeometry>
        </mxCell>
        <mxCell id="3FvASTp7XgKbw8yYfNH8-213" value="&lt;font color=&quot;#ff0000&quot;&gt;alu_op&lt;/font&gt;" style="text;html=1;strokeColor=none;fillColor=none;align=center;verticalAlign=middle;whiteSpace=wrap;rounded=0;fontSize=11;fontFamily=Helvetica;fontColor=default;" vertex="1" parent="1">
          <mxGeometry x="500" y="915" width="50" height="30" as="geometry" />
        </mxCell>
        <mxCell id="3FvASTp7XgKbw8yYfNH8-214" value="" style="endArrow=open;html=1;rounded=0;labelBackgroundColor=default;strokeColor=#ff0000;align=center;verticalAlign=middle;fontFamily=Helvetica;fontSize=11;fontColor=default;shape=connector;entryX=0;entryY=0.5;entryDx=0;entryDy=0;endFill=0;" edge="1" parent="1" target="3FvASTp7XgKbw8yYfNH8-215">
          <mxGeometry width="50" height="50" relative="1" as="geometry">
            <mxPoint x="470" y="949.67" as="sourcePoint" />
            <mxPoint x="550" y="950" as="targetPoint" />
          </mxGeometry>
        </mxCell>
        <mxCell id="3FvASTp7XgKbw8yYfNH8-215" value="&lt;font color=&quot;#ff0000&quot;&gt;imm_type&lt;/font&gt;" style="text;html=1;strokeColor=none;fillColor=none;align=center;verticalAlign=middle;whiteSpace=wrap;rounded=0;fontSize=11;fontFamily=Helvetica;fontColor=default;" vertex="1" parent="1">
          <mxGeometry x="500" y="935" width="60" height="30" as="geometry" />
        </mxCell>
      </root>
    </mxGraphModel>
  </diagram>
</mxfile>
